<svg width="80" height="80" viewBox="0 0 80 80" fill="none" xmlns="http://www.w3.org/2000/svg">
<path d="M79.9106 10.3733C80.0647 9.48079 79.9715 8.55962 79.6382 7.71739C78.9464 6.07222 77.8892 4.60991 76.5522 3.43067C75.3729 2.09379 73.9106 1.0364 72.269 0.344652C71.4232 0.0113226 70.502 -0.0818645 69.6096 0.0722481C69.5953 0.0722481 69.5845 0.0650793 69.5702 0.0650793C69.5236 0.0758321 69.477 0.0865849 69.434 0.100922C68.9429 0.186943 68.4698 0.341064 68.0218 0.556112L65.7565 1.70306C60.6275 -0.465403 54.7926 0.617038 49.6525 4.74604C46.6633 7.14746 31.0683 20.1509 9.52777 38.3552C4.00097 43.0182 0.574447 49.6989 0.00813126 56.9072C-0.153157 62.9108 2.09052 68.7281 6.24467 73.0681C10.3987 77.4051 16.1157 79.8996 22.1193 80C22.4383 80 22.7573 79.9928 23.0763 79.9785V79.9749C30.2949 79.4086 36.9864 75.9678 41.6495 70.4305C59.5381 49.2625 72.8647 33.2842 75.2338 30.3306C79.3628 25.1908 80.4489 19.3594 78.2768 14.2265L79.4273 11.9613C79.6424 11.5168 79.7965 11.0437 79.8825 10.5563C79.8969 10.5097 79.9076 10.4631 79.9184 10.4165C79.9184 10.4022 79.9106 10.3876 79.9106 10.3733ZM74.5235 5.45929C75.477 6.29441 76.2547 7.30872 76.8174 8.44492C75.6669 7.90013 74.6239 7.15824 73.7314 6.25142C72.8246 5.35895 72.0827 4.31592 71.5379 3.1654C72.6741 3.72812 73.6885 4.50586 74.5235 5.45929ZM68.5953 3.48086C69.2548 5.2945 70.3193 6.93601 71.7028 8.28013C73.0468 9.66362 74.6884 10.7282 76.5021 11.3876L76.1329 12.1188C75.6419 11.8536 75.1185 11.6027 74.5738 11.3518L74.5702 11.3482C73.2225 10.8141 71.9717 10.0579 70.8677 9.11523C69.8497 7.9181 69.029 6.5669 68.4376 5.11166C68.2262 4.66721 68.0254 4.25862 67.8247 3.87149L68.5953 3.48086ZM71.2583 22.6137C64.0218 31.1549 58.23 38.0186 53.5559 43.5597C34.0505 66.6812 34.0505 66.6812 29.1407 69.7311C23.2482 73.3942 17.9722 74.5662 12.2953 73.4766C19.3239 71.7812 25.8109 68.3332 31.1556 63.455C32.2165 62.4766 33.2237 61.4372 34.1663 60.3404L68.704 20.925C70.4711 18.9608 71.5607 16.4842 71.8115 13.8534C71.8294 13.6347 71.8115 13.4125 71.8187 13.1939C72.0338 13.305 72.2452 13.4161 72.4603 13.52H72.4639C73.8796 16.5271 73.41 20.0827 71.2596 22.6168L71.2583 22.6137ZM68.9573 13.051C68.9501 13.2588 68.968 13.4596 68.9501 13.671C68.7386 15.671 67.8964 17.5492 66.5487 19.0366L32.011 58.4521C31.1364 59.4664 30.2045 60.4305 29.2224 61.3373C24.1364 65.9824 17.9429 69.2333 11.2338 70.778L68.9573 13.051ZM9.20515 68.7493C10.7499 62.0433 14.0008 55.8467 18.6459 50.7607C19.5527 49.7786 20.5169 48.8467 21.5311 47.9721L60.9466 13.4344C62.4519 12.0724 64.3515 11.2302 66.3695 11.0294C66.5595 11.0151 66.7458 11.0294 66.9358 11.0222L9.20515 68.7493ZM66.4019 7.48782C66.513 7.71362 66.642 7.93943 66.7639 8.16524C66.5273 8.1724 66.298 8.15448 66.0578 8.1724L66.0542 8.17599C63.4521 8.43764 61.0005 9.52727 59.0579 11.2799L19.6424 45.8176C18.5457 46.7602 17.5063 47.7674 16.5242 48.832C11.6497 54.1724 8.20528 60.6565 6.50634 67.685C5.41674 62.0112 6.59236 56.7349 10.2518 50.8432C13.3019 45.9329 13.3019 45.9328 36.4131 26.4381C41.9579 21.7607 48.8249 15.9688 57.3518 8.73937C59.8572 6.57449 63.4019 6.08286 66.4019 7.48782ZM11.4027 40.5235C32.901 22.355 48.4738 9.3734 51.4494 6.98592C53.9476 4.8282 57.1125 3.5917 60.4135 3.48416C61.3274 3.48774 62.2378 3.60961 63.1231 3.839C60.349 3.80674 57.6501 4.76371 55.5138 6.5379C46.9691 13.778 40.1053 19.5699 34.5605 24.2476C11.106 44.0356 11.106 44.0356 7.8156 49.3299C5.3282 53.1041 3.79056 57.4231 3.33894 61.9216C2.95902 60.323 2.80131 58.6815 2.873 57.0399C3.43571 50.6277 6.49946 44.6919 11.4027 40.5235ZM72.9973 28.5347C70.6389 31.4773 57.3346 47.4309 39.4817 68.5521C35.3097 73.4696 29.3703 76.5448 22.9446 77.1111C21.321 77.1828 19.6973 77.0323 18.1131 76.6631C22.5934 76.1936 26.8944 74.6488 30.6543 72.1685C35.9517 68.8783 35.9517 68.8783 55.7476 45.4126C60.425 39.8714 66.2132 33.0073 73.4647 24.4556V24.4521C75.2389 22.3123 76.1887 19.6098 76.1457 16.832C77.1206 20.5955 76.0346 24.7567 73.0023 28.5345L72.9973 28.5347Z" fill="#1A202C"/>
</svg>
